<?xml version="1.0" standalone="no"?>
<!DOCTYPE svg PUBLIC "-//W3C//DTD SVG 20010904//EN"
 "http://www.w3.org/TR/2001/REC-SVG-20010904/DTD/svg10.dtd">
<svg version="1.0" xmlns="http://www.w3.org/2000/svg"
 width="181.000000pt" height="181.000000pt" viewBox="0 0 181.000000 181.000000"
 preserveAspectRatio="xMidYMid meet">
<metadata>
Created by potrace 1.14, written by Peter Selinger 2001-2017
</metadata>
<g transform="translate(0.000000,181.000000) scale(0.100000,-0.100000)"
fill="#000000" stroke="none">
<path d="M10 910 l0 -900 900 0 900 0 0 900 0 900 -900 0 -900 0 0 -900z m344
128 c44 -119 84 -219 87 -222 3 -3 41 95 85 219 l79 225 88 0 c67 0 87 -3 87
-14 0 -7 -14 -16 -30 -20 -51 -10 -53 -27 -31 -281 18 -212 21 -231 41 -247
12 -10 31 -18 42 -18 11 0 18 -5 16 -12 -7 -19 -248 -24 -248 -5 0 7 14 17 32
22 17 6 36 17 41 26 10 16 -8 351 -22 422 -5 25 -22 -12 -101 -227 -52 -141
-97 -256 -100 -256 -3 0 -50 113 -105 251 -54 138 -102 252 -105 254 -12 7
-40 -426 -30 -445 6 -11 26 -22 45 -26 20 -3 35 -12 35 -20 0 -11 -22 -14
-105 -14 -84 0 -105 3 -105 14 0 8 14 17 31 21 18 4 34 16 39 30 5 12 16 124
26 248 17 219 17 227 -1 247 -10 11 -26 20 -37 20 -10 0 -18 7 -18 15 0 13 15
15 91 13 l91 -3 82 -217z m776 213 c0 -5 -16 -15 -35 -21 -19 -6 -37 -16 -41
-21 -3 -6 27 -103 67 -216 l73 -206 58 174 c39 116 57 182 52 199 -7 31 -32
60 -61 71 -52 20 -20 29 102 29 127 0 154 -9 90 -30 -19 -6 -37 -16 -41 -21
-3 -5 27 -102 67 -215 l72 -206 69 199 c37 109 68 206 68 215 0 12 -13 21 -40
28 -68 18 -45 30 60 30 100 0 126 -10 76 -30 -14 -5 -31 -19 -39 -32 -8 -13
-59 -141 -113 -285 -54 -144 -102 -259 -105 -255 -4 4 -42 95 -84 202 -42 107
-80 198 -84 203 -4 4 -43 -87 -87 -202 -43 -116 -82 -207 -86 -203 -3 4 -52
124 -109 267 -56 143 -109 268 -118 279 -9 10 -26 22 -38 27 -52 20 -20 29
102 29 70 0 125 -4 125 -9z"/>
</g>
</svg>
