<svg width="48" height="48" viewBox="0 0 48 48" fill="none" xmlns="http://www.w3.org/2000/svg">
<g id="Instagram_Glyph_Black 1" clip-path="url(#clip0_137_74)">
<path id="Vector" d="M14.0602 0.168094C11.5066 0.288574 9.76276 0.696094 8.23828 1.29513C6.66052 1.91001 5.32324 2.73513 3.99268 4.07049C2.66212 5.40585 1.84276 6.74409 1.2322 8.32425C0.641319 9.85209 0.240999 11.5974 0.128199 14.1524C0.0153989 16.7075 -0.00956108 17.5287 0.00291892 24.0462C0.0153989 30.5636 0.0441989 31.3806 0.168039 33.9409C0.289959 36.494 0.696039 38.2374 1.29508 39.7623C1.91092 41.3401 2.73508 42.6769 4.07092 44.0079C5.40676 45.339 6.74404 46.1564 8.32804 46.7679C9.85444 47.3579 11.6002 47.7601 14.1548 47.8719C16.7093 47.9838 17.5316 48.0097 24.0471 47.9972C30.5626 47.9847 31.3829 47.9559 33.9428 47.8345C36.5026 47.7131 38.2368 47.3041 39.7623 46.7079C41.34 46.0907 42.6778 45.2679 44.0079 43.9316C45.338 42.5953 46.1568 41.2561 46.7669 39.675C47.3583 38.1486 47.76 36.4028 47.8709 33.8502C47.9828 31.2884 48.0092 30.4705 47.9967 23.954C47.9842 17.4375 47.9549 16.6206 47.8335 14.0612C47.712 11.5019 47.3055 9.76377 46.7069 8.23785C46.0901 6.66009 45.2669 5.32425 43.9316 3.99225C42.5962 2.66025 41.256 1.84185 39.6754 1.23321C38.148 0.642334 36.4032 0.239614 33.8487 0.129214C31.2941 0.0188144 30.4719 -0.00950559 23.954 0.00297441C17.436 0.0154544 16.62 0.0432944 14.0602 0.168094ZM14.3405 43.5543C12.0005 43.4526 10.73 43.0638 9.88324 42.7383C8.76196 42.3063 7.96324 41.7841 7.1194 40.9484C6.27556 40.1127 5.75716 39.3111 5.3194 38.1923C4.9906 37.3455 4.5946 36.0764 4.48516 33.7364C4.36612 31.2073 4.34116 30.4479 4.32724 24.0404C4.31332 17.6329 4.3378 16.8745 4.44868 14.3444C4.54852 12.0063 4.93972 10.7343 5.26468 9.88809C5.69668 8.76538 6.217 7.96809 7.0546 7.12473C7.8922 6.28137 8.6914 5.76201 9.81124 5.32425C10.657 4.99401 11.9261 4.60137 14.2652 4.49001C16.7962 4.37001 17.5546 4.34601 23.9612 4.33209C30.3677 4.31817 31.128 4.34217 33.66 4.45353C35.9981 4.55529 37.2706 4.94265 38.1159 5.26953C39.2376 5.70153 40.0359 6.22042 40.8792 7.05945C41.7226 7.8985 42.2424 8.69481 42.6802 9.81705C43.0109 10.6604 43.4036 11.9291 43.514 14.2695C43.6344 16.8006 43.6618 17.5595 43.6733 23.9655C43.6848 30.3716 43.6623 31.1324 43.5514 33.6615C43.4492 36.0015 43.0613 37.2726 42.7354 38.1203C42.3034 39.2411 41.7826 40.0403 40.9445 40.8831C40.1064 41.726 39.3082 42.2454 38.1879 42.6831C37.3431 43.0129 36.0725 43.4065 33.7354 43.5179C31.2044 43.6369 30.446 43.6619 24.037 43.6758C17.628 43.6897 16.872 43.6638 14.341 43.5543M33.9058 11.1731C33.9067 11.7427 34.0766 12.2993 34.3939 12.7724C34.7112 13.2455 35.1617 13.6139 35.6883 13.8309C36.215 14.048 36.7942 14.104 37.3527 13.9919C37.9112 13.8798 38.4239 13.6045 38.826 13.201C39.2281 12.7974 39.5014 12.2837 39.6115 11.7248C39.7216 11.1659 39.6635 10.5869 39.4445 10.061C39.2254 9.53516 38.8554 9.08604 38.3811 8.77049C37.9069 8.45494 37.3497 8.28712 36.78 8.28825C36.0164 8.28978 35.2846 8.59454 34.7456 9.13552C34.2066 9.6765 33.9045 10.4094 33.9058 11.1731ZM11.677 24.0241C11.6904 30.8305 17.2181 36.3356 24.0231 36.3227C30.828 36.3097 36.337 30.7825 36.324 23.9761C36.3111 17.1697 30.782 11.6631 23.976 11.6766C17.1701 11.69 11.664 17.2187 11.677 24.0241ZM15.9999 24.0155C15.9967 22.4332 16.4629 20.8855 17.3394 19.5681C18.2158 18.2508 19.4632 17.2229 20.9239 16.6145C22.3845 16.0061 23.9928 15.8445 25.5452 16.1501C27.0977 16.4557 28.5247 17.2148 29.6458 18.3315C30.7668 19.4481 31.5316 20.8721 31.8434 22.4233C32.1551 23.9746 31.9999 25.5835 31.3973 27.0465C30.7946 28.5095 29.7717 29.761 28.4578 30.6427C27.144 31.5244 25.5982 31.9966 24.0159 31.9998C22.9652 32.002 21.9245 31.7972 20.953 31.3971C19.9815 30.997 19.0984 30.4095 18.354 29.6681C17.6096 28.9266 17.0186 28.0458 16.6147 27.0759C16.2107 26.106 16.0018 25.0661 15.9999 24.0155Z" fill="black"/>
</g>
<defs>
<clipPath id="clip0_137_74">
<rect width="48" height="48" fill="white"/>
</clipPath>
</defs>
</svg>
