<svg width="64" height="64" viewBox="0 0 64 64" fill="none" xmlns="http://www.w3.org/2000/svg">
<g id="linkedin-box-fill">
<path id="Vector" d="M48.896 48.904H41.7893V37.7653C41.7893 35.1093 41.736 31.6907 38.0827 31.6907C34.3787 31.6907 33.8133 34.5813 33.8133 37.5707V48.904H26.704V26H33.5307V29.12H33.624C34.5787 27.3227 36.8987 25.4213 40.3653 25.4213C47.5653 25.4213 48.8987 30.1627 48.8987 36.3333L48.896 48.904ZM18.6773 22.8667C18.1348 22.8674 17.5975 22.761 17.0962 22.5536C16.5948 22.3462 16.1394 22.042 15.7559 21.6582C15.3724 21.2745 15.0684 20.8188 14.8614 20.3174C14.6543 19.8159 14.5483 19.2785 14.5493 18.736C14.5499 17.9196 14.7925 17.1216 15.2465 16.4431C15.7005 15.7645 16.3456 15.2358 17.1001 14.9239C17.8546 14.6119 18.6846 14.5307 19.4853 14.6905C20.2859 14.8503 21.0212 15.2439 21.5982 15.8216C22.1751 16.3993 22.5678 17.1351 22.7265 17.936C22.8853 18.7368 22.803 19.5668 22.4901 20.3208C22.1772 21.0749 21.6476 21.7193 20.9685 22.1725C20.2894 22.6256 19.4911 22.8672 18.6747 22.8667M22.2373 48.904H15.112V26H22.24L22.2373 48.904ZM52.4533 8H11.5467C9.584 8 8 9.54667 8 11.4587V52.5413C8 54.4533 9.584 56 11.5413 56H52.4453C54.4 56 56 54.4533 56 52.5413V11.4587C56 9.54933 54.4 8 52.4427 8H52.4533Z" fill="#1A1A1A"/>
</g>
</svg>
