<svg width="107" height="79" viewBox="0 0 107 79" fill="none" xmlns="http://www.w3.org/2000/svg">
<g id="Frame" clip-path="url(#clip0_137_221)">
<path id="Vector" d="M106.696 37.3481L87.5107 25.6444L81.8157 18.4908C81.7119 18.3606 81.5617 18.2766 81.3974 18.257L70.8563 17.0159C70.8372 17.0146 70.819 17.0208 70.8003 17.0208C70.7705 17.0214 70.7408 17.0241 70.7114 17.0289C70.6292 17.0521 70.5471 17.0755 70.4651 17.0992L64.2823 20.7622L55.0242 23.281L27.4577 3.36782C27.45 3.36222 27.4398 3.36285 27.4318 3.35787C27.3529 3.30338 27.2626 3.26806 27.168 3.25465L27.1581 3.25341L27.1501 3.25217L0.699391 0.000256217C0.677607 0.000251602 0.655841 0.00149586 0.634196 0.00398299C0.625279 0.00398299 0.616355 0.00211961 0.607437 0.00211961C0.59731 0.00273844 0.587141 -0.000988333 0.576993 0.000256217C0.552417 0.0021196 0.529631 0.00774415 0.505029 0.0120691C0.468651 0.0197959 0.433037 0.0308261 0.398621 0.0450257C0.386011 0.0493781 0.373094 0.0524861 0.361102 0.0574574C0.338956 0.0680258 0.319278 0.0798387 0.298362 0.0922773C0.269723 0.110119 0.242571 0.130291 0.217176 0.152593C0.200574 0.166827 0.184762 0.181977 0.169815 0.197975C0.161203 0.207305 0.149518 0.211658 0.141519 0.221587C0.134445 0.230312 0.132602 0.240881 0.12614 0.249586C0.109354 0.271678 0.0941453 0.29495 0.080629 0.319226C0.0744733 0.329801 0.0646311 0.337261 0.0591012 0.348448C0.0517144 0.363376 0.0517144 0.38016 0.0455655 0.395707C0.0353577 0.419984 0.0267237 0.444907 0.0197186 0.470318C0.0166578 0.482757 0.0086656 0.491462 0.00623055 0.503893C0.00436005 0.513224 0.00743447 0.522548 0.00589726 0.531879C0.00205903 0.560731 0.000209008 0.589817 0.000360569 0.618928C-0.000656968 0.647782 0.000479895 0.676672 0.00376148 0.705352C0.00591766 0.724007 0.00560478 0.742661 0.00960426 0.761316C0.016664 0.788004 0.0255016 0.814179 0.0360566 0.839661C0.0453813 0.868655 0.0567888 0.896922 0.0701882 0.924235C0.0781871 0.939782 0.0827988 0.955321 0.091716 0.969617C0.109552 0.994174 0.129297 1.01725 0.150763 1.03864C0.162306 1.05712 0.174826 1.07496 0.188268 1.09208L39.1792 38.7223L35.0016 44.6105C34.9572 44.6744 34.925 44.7461 34.9066 44.822C34.9056 44.8257 34.9023 44.8281 34.9013 44.8319L34.9004 44.8356L34.9001 44.8375L32.9977 52.8106C32.994 52.8261 32.9998 52.8411 32.9974 52.8566C32.9906 52.8782 32.9852 52.9002 32.981 52.9225L32.0037 69.5925C31.9966 69.7179 32.0263 69.8434 32.0892 69.9518L37.155 78.6854C37.2105 78.7811 37.2898 78.8606 37.3851 78.9158C37.4804 78.9709 37.5883 79 37.6981 79C37.7236 79.0002 37.7491 78.9985 37.7743 78.995C37.8962 78.9802 38.011 78.9297 38.1048 78.8497C38.1986 78.7697 38.2672 78.6638 38.3021 78.5449L45.8057 52.976L59.8279 47.8339C59.9378 47.7941 60.0344 47.7238 60.1066 47.6312L70.4528 34.4649L85.5068 30.2375L106.138 38.4848C106.212 38.5141 106.291 38.5293 106.37 38.5295C106.508 38.5296 106.642 38.4841 106.751 38.4C106.861 38.3159 106.94 38.1978 106.977 38.0638C107.014 37.9298 107.006 37.7873 106.955 37.6581C106.905 37.5288 106.813 37.42 106.696 37.3481ZM45.162 51.5882L36.7327 45.1173L56.4653 35.9852L46.4033 49.8752L45.162 51.5882ZM40.4112 37.8978L36.864 28.0475L56.0289 34.284L44.9523 36.847L40.4112 37.8978ZM19.3128 13.8591L3.81414 2.23307L26.1857 8.80467L34.1048 24.9548L19.3128 13.8591ZM36.1905 26.3401L28.0832 9.80698L52.984 23.6366L36.1905 26.3401ZM38.5334 27.2529L54.4743 24.6874L55.2505 26.993L57.4039 33.3936L45.7534 29.6026L38.5334 27.2529ZM56.0797 25.5045L68.0783 33.352L58.8484 33.7312L56.0797 25.5045ZM57.7588 25.0854L72.7273 27.529L69.8531 32.9957L57.7588 25.0854ZM27.2984 7.91677L27.3851 7.09853L27.6032 5.03795L45.8602 18.2265L27.2984 7.91677ZM52.554 36.3943L37.4078 43.4043L40.3823 39.211L52.554 36.3943ZM35.8996 46.0773L43.513 51.9214L41.792 51.9911L34.4173 52.2895L35.8996 46.0773ZM34.2045 53.5735L43.9962 53.1775L33.3858 67.5456L34.2045 53.5735ZM84.7361 24.19L75.5634 19.4191L74.1561 18.6873L80.9958 19.4918L84.7361 24.19ZM70.8034 18.3751L84.7868 25.6487L74.4403 26.3538L73.8548 26.3936L65.7548 21.3659L70.8034 18.3751ZM64.4324 22.0399L70.6533 25.9012L57.8954 23.8182L64.4324 22.0399ZM26.0971 7.29685L26.0811 7.44732L8.2636 2.21317L26.3991 4.44226L26.0971 7.29685ZM8.40569 7.26266L35.3048 27.4407L38.4965 36.3036L8.40569 7.26266ZM33.387 69.672L43.6831 55.7299L37.5074 76.7753L33.387 69.672ZM59.2307 46.6985L47.0233 51.1753L58.7331 35.0115L59.1627 34.9941L68.7373 34.6005L59.2307 46.6985ZM85.7737 28.9752C85.6999 28.9457 85.6212 28.9305 85.5418 28.9305C85.4848 28.9303 85.4281 28.9382 85.3733 28.9541L71.3317 32.8975L74.0885 27.6546L86.9331 26.7791L99.5791 34.4942L85.7737 28.9752Z" fill="#2BC9A5"/>
</g>
<defs>
<clipPath id="clip0_137_221">
<rect width="107" height="79" fill="white"/>
</clipPath>
</defs>
</svg>
